<svg xmlns="http://www.w3.org/2000/svg" xmlns:xlink="http://www.w3.org/1999/xlink" version="1.1" width="256" height="256" viewBox="0 0 256 256" xml:space="preserve">

<defs>
</defs>
<g style="stroke: none; stroke-width: 0; stroke-dasharray: none; stroke-linecap: butt; stroke-linejoin: miter; stroke-miterlimit: 10; fill: none; fill-rule: nonzero; opacity: 1;" transform="translate(1.4065934065934016 1.4065934065934016) scale(2.81 2.81)" >
	<path d="M 63.202 0 c -8.574 0 -15.55 6.976 -15.55 15.55 v 37.427 c 0 8.574 6.976 15.55 15.55 15.55 c 8.575 0 15.551 -6.976 15.551 -15.55 V 15.55 C 78.753 6.976 71.777 0 63.202 0 z" style="stroke: none; stroke-width: 1; stroke-dasharray: none; stroke-linecap: butt; stroke-linejoin: miter; stroke-miterlimit: 10; fill: rgb(153,213,59); fill-rule: nonzero; opacity: 1;" transform=" matrix(1 0 0 1 0 0) " stroke-linecap="round" />
	<path d="M 63.202 90 c -0.828 0 -1.5 -0.672 -1.5 -1.5 V 32.633 c 0 -0.829 0.672 -1.5 1.5 -1.5 s 1.5 0.671 1.5 1.5 V 88.5 C 64.702 89.328 64.03 90 63.202 90 z" style="stroke: none; stroke-width: 1; stroke-dasharray: none; stroke-linecap: butt; stroke-linejoin: miter; stroke-miterlimit: 10; fill: rgb(133,186,50); fill-rule: nonzero; opacity: 1;" transform=" matrix(1 0 0 1 0 0) " stroke-linecap="round" />
	<path d="M 63.202 56.186 c -0.384 0 -0.768 -0.146 -1.061 -0.439 c -0.586 -0.586 -0.586 -1.535 0 -2.121 l 6.273 -6.272 c 0.586 -0.586 1.535 -0.586 2.121 0 s 0.586 1.535 0 2.121 l -6.273 6.272 C 63.97 56.039 63.586 56.186 63.202 56.186 z" style="stroke: none; stroke-width: 1; stroke-dasharray: none; stroke-linecap: butt; stroke-linejoin: miter; stroke-miterlimit: 10; fill: rgb(133,186,50); fill-rule: nonzero; opacity: 1;" transform=" matrix(1 0 0 1 0 0) " stroke-linecap="round" />
	<path d="M 63.202 48.998 c -0.384 0 -0.768 -0.146 -1.061 -0.439 l -6.272 -6.273 c -0.586 -0.586 -0.586 -1.536 0 -2.121 c 0.586 -0.586 1.535 -0.586 2.121 0 l 6.272 6.273 c 0.586 0.586 0.586 1.535 0 2.121 C 63.97 48.852 63.586 48.998 63.202 48.998 z" style="stroke: none; stroke-width: 1; stroke-dasharray: none; stroke-linecap: butt; stroke-linejoin: miter; stroke-miterlimit: 10; fill: rgb(133,186,50); fill-rule: nonzero; opacity: 1;" transform=" matrix(1 0 0 1 0 0) " stroke-linecap="round" />
	<circle cx="33.205" cy="54.714999999999996" r="21.955" style="stroke: none; stroke-width: 1; stroke-dasharray: none; stroke-linecap: butt; stroke-linejoin: miter; stroke-miterlimit: 10; fill: rgb(28,165,111); fill-rule: nonzero; opacity: 1;" transform="  matrix(1 0 0 1 0 0) "/>
	<path d="M 33.203 90 c -0.829 0 -1.5 -0.672 -1.5 -1.5 V 51.802 c 0 -0.828 0.671 -1.5 1.5 -1.5 s 1.5 0.672 1.5 1.5 V 88.5 C 34.703 89.328 34.031 90 33.203 90 z" style="stroke: none; stroke-width: 1; stroke-dasharray: none; stroke-linecap: butt; stroke-linejoin: miter; stroke-miterlimit: 10; fill: rgb(23,139,93); fill-rule: nonzero; opacity: 1;" transform=" matrix(1 0 0 1 0 0) " stroke-linecap="round" />
	<path d="M 33.203 67.05 c -0.384 0 -0.768 -0.146 -1.061 -0.439 c -0.586 -0.586 -0.586 -1.535 0 -2.121 l 3.911 -3.91 c 0.586 -0.586 1.535 -0.586 2.121 0 s 0.586 1.535 0 2.121 l -3.911 3.91 C 33.97 66.903 33.586 67.05 33.203 67.05 z" style="stroke: none; stroke-width: 1; stroke-dasharray: none; stroke-linecap: butt; stroke-linejoin: miter; stroke-miterlimit: 10; fill: rgb(23,139,93); fill-rule: nonzero; opacity: 1;" transform=" matrix(1 0 0 1 0 0) " stroke-linecap="round" />
	<path d="M 33.203 62.568 c -0.384 0 -0.768 -0.146 -1.061 -0.439 l -3.911 -3.91 c -0.586 -0.586 -0.586 -1.535 0 -2.121 c 0.585 -0.586 1.535 -0.586 2.121 0 l 3.911 3.91 c 0.586 0.586 0.586 1.535 0 2.121 C 33.971 62.422 33.586 62.568 33.203 62.568 z" style="stroke: none; stroke-width: 1; stroke-dasharray: none; stroke-linecap: butt; stroke-linejoin: miter; stroke-miterlimit: 10; fill: rgb(23,139,93); fill-rule: nonzero; opacity: 1;" transform=" matrix(1 0 0 1 0 0) " stroke-linecap="round" />
	<path d="M 22.975 0 c -6.467 0 -11.728 5.261 -11.728 11.728 s 5.261 11.728 11.728 11.728 s 11.728 -5.261 11.728 -11.728 S 29.442 0 22.975 0 z" style="stroke: none; stroke-width: 1; stroke-dasharray: none; stroke-linecap: butt; stroke-linejoin: miter; stroke-miterlimit: 10; fill: rgb(237,204,67); fill-rule: nonzero; opacity: 1;" transform=" matrix(1 0 0 1 0 0) " stroke-linecap="round" />
	<path d="M 77.253 90 H 12.747 c -0.829 0 -1.5 -0.672 -1.5 -1.5 s 0.671 -1.5 1.5 -1.5 h 64.506 c 0.828 0 1.5 0.672 1.5 1.5 S 78.081 90 77.253 90 z" style="stroke: none; stroke-width: 1; stroke-dasharray: none; stroke-linecap: butt; stroke-linejoin: miter; stroke-miterlimit: 10; fill: rgb(153,213,59); fill-rule: nonzero; opacity: 1;" transform=" matrix(1 0 0 1 0 0) " stroke-linecap="round" />
</g>
</svg>